<?xml version="1.0" standalone="no"?>
<!DOCTYPE svg PUBLIC "-//W3C//DTD SVG 20010904//EN" "http://www.w3.org/TR/2001/REC-SVG-20010904/DTD/svg10.dtd">
<svg xmlns="http://www.w3.org/2000/svg" version="1.0" width="460.000000pt" height="460.000000pt" viewBox="0 0 460.000000 460.000000" preserveAspectRatio="xMidYMid meet">
<metadata>
Created by potrace 1.16, written by Peter Selinger 2001-2019
<meta name="Producer" content="Online-Convert"/></metadata>
<g transform="translate(0.000000,460.000000) scale(0.100000,-0.100000)" fill="#000000" stroke="none">
<path d="M1965 4581 c-312 -50 -608 -157 -860 -311 -95 -58 -109 -68 -208 -142 -144 -108 -338 -303 -436 -438 -22 -30 -48 -66 -58 -80 -129 -179 -276 -497 -329 -715 -8 -33 -20 -78 -25 -100 -32 -132 -44 -258 -44 -490 0 -307 11 -394 85 -655 62 -216 210 -529 314 -661 12 -14 28 -37 36 -49 16 -24 99 -131 109 -140 3 -3 33 -34 65 -70 87 -95 238 -229 338 -300 192 -137 459 -270 653 -327 283 -82 396 -98 695 -98 299 0 403 15 695 98 177 50 463 190 615 300 111 80 144 106 205 161 39 34 84 76 101 92 48 44 198 216 219 249 10 17 33 48 50 70 117 150 260 449 325 675 70 249 82 327 87 614 6 289 -10 414 -87 686 -61 213 -196 499 -313 660 -81 112 -106 144 -165 210 -132 146 -274 276 -372 340 -12 8 -35 24 -49 36 -121 95 -438 250 -616 301 -284 82 -371 95 -670 98 -200 2 -272 -1 -360 -14z m566 -386 c183 -27 322 -61 437 -106 12 -5 32 -13 45 -18 66 -26 232 -110 302 -154 124 -78 191 -131 325 -258 255 -243 465 -629 530 -974 54 -292 54 -476 0 -770 -6 -33 -15 -73 -20 -90 -41 -136 -63 -203 -74 -229 -92 -207 -99 -218 -117 -167 -6 17 -16 31 -22 31 -6 0 -7 3 -4 6 4 4 -1 14 -11 23 -18 17 -29 33 -62 95 -12 22 -35 56 -51 75 -16 20 -29 39 -29 42 0 4 -22 29 -49 57 -27 27 -67 76 -89 108 -83 123 -154 173 -292 209 -58 15 -87 16 -270 6 -216 -12 -323 -5 -392 23 -21 9 -45 16 -54 16 -9 0 -29 9 -45 20 -26 19 -27 23 -17 48 17 41 31 52 65 55 17 1 29 5 27 9 -4 6 30 21 51 23 5 0 14 10 21 22 6 13 14 20 17 16 4 -3 7 1 7 10 0 10 5 14 14 11 11 -4 13 0 9 18 -4 13 -2 20 3 15 5 -5 10 -13 10 -18 1 -5 2 -14 3 -20 0 -5 5 -8 10 -5 12 8 26 119 23 181 -2 27 -14 92 -28 145 -13 52 -24 102 -24 111 0 9 -7 22 -15 29 -8 7 -12 16 -9 21 3 5 0 9 -6 9 -6 0 -9 4 -6 8 3 5 -4 19 -15 31 -11 12 -21 30 -22 41 -1 11 -7 22 -14 24 -10 4 -13 36 -13 123 0 88 -5 136 -20 187 -11 38 -26 108 -34 155 -8 47 -25 115 -36 151 -12 36 -23 70 -24 77 -1 7 -5 16 -10 20 -4 4 -17 28 -29 52 -35 72 -41 81 -54 81 -7 0 -10 7 -7 15 4 8 1 15 -6 15 -6 0 -18 7 -26 15 -9 8 -12 15 -8 15 5 0 -7 14 -26 31 -19 17 -28 27 -20 23 9 -4 12 -3 7 2 -5 5 -12 9 -15 10 -21 3 -42 18 -42 31 0 8 -5 11 -10 8 -6 -3 -13 1 -16 9 -3 9 -10 14 -14 11 -5 -3 -15 2 -23 10 -9 8 -22 15 -29 15 -7 0 -25 8 -38 17 -14 10 -27 17 -30 16 -3 -2 -23 3 -45 9 -61 16 -221 14 -283 -5 -46 -14 -106 -47 -122 -67 -9 -12 -72 -30 -83 -23 -6 3 -7 1 -3 -5 4 -7 -3 -14 -18 -18 -13 -3 -27 -12 -30 -20 -3 -8 -12 -14 -19 -14 -7 0 -20 -11 -27 -25 -7 -14 -17 -25 -22 -25 -4 0 -8 -7 -8 -15 0 -8 -4 -15 -10 -15 -5 0 -10 -6 -10 -13 0 -8 -9 -22 -20 -32 -11 -10 -20 -23 -19 -29 3 -26 -2 -37 -13 -30 -7 4 -10 4 -6 -1 4 -4 2 -17 -4 -29 -7 -11 -12 -25 -13 -31 -2 -29 -18 -102 -26 -116 -4 -8 -9 -40 -10 -70 -1 -30 -6 -62 -11 -71 -6 -12 -5 -18 2 -18 11 0 9 -58 -3 -77 -4 -6 -4 -19 0 -29 4 -10 2 -15 -3 -11 -6 3 -11 -22 -12 -64 -2 -38 -7 -80 -12 -93 -5 -13 -6 -33 -3 -45 3 -12 1 -21 -3 -21 -5 0 -9 -28 -10 -62 0 -37 3 -54 7 -42 6 15 8 12 8 -13 1 -17 5 -34 11 -38 5 -3 7 -22 4 -43 -16 -109 -15 -150 1 -181 9 -18 23 -35 31 -38 13 -5 13 -7 2 -14 -9 -6 -9 -9 -1 -9 10 0 30 -93 26 -127 0 -7 3 -13 9 -13 5 0 6 -4 3 -10 -3 -5 1 -20 9 -32 26 -40 27 -178 1 -178 -9 0 -18 7 -22 16 -3 9 -16 27 -29 41 -13 14 -28 40 -34 59 -12 35 -30 46 -30 19 0 -21 37 -98 59 -121 32 -35 54 -74 42 -74 -7 0 -10 -4 -7 -8 6 -9 -15 -87 -27 -98 -4 -4 -7 -34 -7 -66 0 -33 -5 -69 -12 -81 -7 -12 -12 -28 -13 -36 0 -8 -37 -26 -95 -45 -170 -55 -241 -115 -313 -260 -46 -93 -109 -229 -132 -286 -10 -25 -24 -60 -32 -78 l-14 -33 -18 23 c-77 99 -208 351 -254 488 -111 333 -136 655 -75 970 26 138 65 277 104 370 34 82 129 264 175 335 134 206 348 420 554 554 71 46 262 145 325 169 19 8 44 18 55 22 18 8 100 34 190 60 17 5 71 16 120 24 50 9 113 20 140 25 82 14 333 12 446 -4z m-681 -476 c90 -33 130 -52 130 -61 0 -4 7 -8 15 -8 8 0 51 -36 97 -81 46 -44 103 -99 127 -122 24 -23 57 -59 72 -81 16 -21 64 -77 106 -124 43 -46 83 -94 90 -106 49 -86 67 -172 40 -194 -12 -10 -26 -80 -42 -217 -14 -114 -65 -217 -137 -277 -68 -57 -134 -102 -178 -120 -63 -26 -227 -28 -280 -3 -174 81 -274 154 -312 228 -27 53 -58 170 -58 220 0 21 -10 74 -21 119 -17 64 -20 96 -14 151 7 79 13 99 26 91 5 -3 14 8 20 25 15 41 29 39 27 -4 -1 -19 1 -38 5 -41 6 -7 -24 -39 -44 -47 -8 -3 7 -6 32 -6 26 -1 60 -8 75 -16 33 -17 70 -20 79 -6 3 5 19 12 35 16 44 10 25 28 -21 20 -23 -4 -39 -3 -39 3 0 12 58 22 128 22 45 0 55 -3 59 -20 3 -11 9 -17 14 -15 4 3 12 -3 18 -12 8 -14 9 -6 5 31 -6 57 -28 116 -43 116 -6 0 -11 11 -11 25 0 43 -41 60 -145 59 -54 0 -99 -5 -114 -13 -34 -19 -38 -7 -40 124 -1 131 14 181 73 239 38 36 111 76 139 76 9 0 17 7 17 15 0 19 4 19 70 -6z m580 -1394 c18 -57 64 -135 98 -168 28 -27 143 -77 226 -98 41 -10 43 -13 79 -97 102 -243 89 -345 -69 -542 -172 -214 -273 -283 -470 -319 -61 -11 -241 -15 -266 -6 -10 4 -12 40 -9 173 3 161 -12 355 -30 377 -13 17 5 256 22 291 8 15 4 40 -16 104 -28 84 -37 147 -28 193 4 22 12 26 57 32 104 15 186 57 321 167 l60 48 6 -57 c3 -32 11 -76 19 -98z m1460 -1075 c0 -49 -266 -353 -365 -419 -22 -14 -43 -30 -46 -34 -4 -5 -10 -4 -13 2 -4 6 -12 8 -18 5 -7 -4 -6 -9 2 -14 15 -9 -45 -54 -63 -47 -7 3 -5 6 6 6 12 1 17 9 16 29 l-1 27 -8 -25 -8 -25 -1 27 c-2 41 -12 63 -22 46 -7 -10 -9 -9 -9 5 0 22 14 22 35 0 24 -23 80 -26 97 -5 12 15 11 16 -5 3 -22 -18 -38 -4 -55 47 -10 30 0 47 11 20 3 -7 6 2 6 20 1 17 -3 32 -9 32 -5 0 -7 -8 -4 -17 5 -17 5 -17 -5 -1 -8 11 -8 25 -1 42 6 17 6 27 -2 32 -6 4 -8 3 -5 -2 3 -5 -4 -10 -15 -10 -17 0 -14 6 18 33 22 18 67 49 102 69 37 21 60 40 56 46 -4 7 -2 8 4 4 7 -4 12 -3 12 2 0 8 53 36 70 37 3 0 16 8 30 17 14 9 37 20 53 23 15 4 30 11 33 16 9 15 54 10 54 -5 0 -23 15 -26 28 -6 10 16 9 18 -3 14 -8 -4 -15 -1 -15 5 0 6 9 11 20 11 11 0 20 -4 20 -10z"/>
<path d="M2175 3320 c-84 -6 -118 -19 -134 -49 -12 -21 -5 -31 21 -31 21 0 21 -1 7 -34 -7 -14 -9 -40 -5 -62 l7 -37 87 7 c48 3 88 11 90 16 2 5 13 -1 25 -13 20 -20 26 -22 56 -12 l34 12 -29 27 c-35 34 -100 65 -156 74 -59 10 -57 26 5 45 68 21 101 21 138 0 35 -21 50 -10 23 17 -35 35 -83 46 -169 40z"/>
<path d="M2087 2920 c9 -17 26 -33 36 -36 33 -10 159 -136 145 -145 -6 -4 -87 -7 -178 -7 -103 0 -152 3 -131 8 20 5 54 29 87 61 50 49 71 81 42 63 -7 -5 -19 -9 -28 -10 -8 0 -41 -6 -73 -12 -38 -8 -66 -8 -83 -2 -14 6 -36 7 -50 4 -34 -9 -41 18 -13 55 47 63 5 42 -74 -38 -45 -45 -90 -87 -100 -92 -19 -11 -65 9 -95 42 l-20 20 -6 -25 c-7 -27 0 -86 14 -126 4 -14 11 -37 14 -53 12 -53 113 -171 135 -157 10 5 6 20 -13 58 -14 27 -33 57 -42 66 -23 24 -31 94 -11 102 25 9 88 -46 81 -71 -4 -14 -3 -16 4 -6 6 8 12 9 16 3 3 -6 2 -13 -4 -17 -5 -3 -10 -19 -10 -36 0 -22 5 -29 19 -29 10 0 24 -7 32 -16 26 -32 66 -44 128 -39 86 6 140 23 186 56 22 17 49 37 60 44 11 8 -7 3 -40 -12 -65 -29 -155 -35 -208 -14 -37 14 -26 31 21 32 l37 2 -35 6 c-28 5 -36 11 -38 32 -3 22 2 27 36 37 21 6 84 17 141 23 87 10 104 10 112 -2 10 -16 -26 -53 -42 -43 -5 3 -12 -2 -15 -10 -3 -9 -10 -14 -14 -11 -5 3 -11 1 -15 -5 -9 -14 16 -12 65 5 48 17 62 19 40 5 -8 -5 -12 -12 -8 -15 4 -4 14 6 24 22 52 83 89 97 80 31 l-6 -43 13 35 c27 70 28 84 3 110 -58 62 -208 180 -228 180 -5 0 -1 -14 9 -30z"/>
</g>
</svg>
