<?xml version="1.0" standalone="no"?>
<!DOCTYPE svg PUBLIC "-//W3C//DTD SVG 20010904//EN" "http://www.w3.org/TR/2001/REC-SVG-20010904/DTD/svg10.dtd">
<svg xmlns="http://www.w3.org/2000/svg" version="1.0" width="2048.000000pt" height="2048.000000pt" viewBox="0 0 2048.000000 2048.000000" preserveAspectRatio="xMidYMid meet">
<metadata>
Created by potrace 1.16, written by Peter Selinger 2001-2019
<meta name="Producer" content="Online-Convert"/></metadata>
<g transform="translate(0.000000,2048.000000) scale(0.100000,-0.100000)" fill="#000000" stroke="none">
<path d="M9550 15580 c-373 -27 -672 -114 -866 -252 -88 -62 -742 -619 -849 -724 -146 -142 -268 -311 -345 -479 -94 -204 -159 -433 -250 -880 -102 -502 -140 -638 -218 -788 -55 -104 -123 -174 -232 -236 -198 -113 -284 -185 -412 -344 -96 -119 -155 -167 -272 -222 l-88 -43 68 -38 c90 -50 224 -100 338 -126 120 -27 335 -29 451 -4 179 39 215 65 648 469 l257 240 1 291 0 291 104 95 c73 67 103 100 99 112 -8 28 22 86 55 102 47 25 79 20 117 -18 46 -46 47 -94 4 -138 -26 -26 -36 -29 -80 -27 l-51 3 -84 -84 -85 -85 0 -291 0 -291 -47 -44 c-27 -23 -136 -124 -243 -224 -107 -100 -287 -265 -400 -367 -220 -198 -310 -290 -393 -402 -101 -135 -160 -249 -210 -401 -45 -139 -52 -190 -52 -380 0 -198 13 -280 67 -435 86 -243 207 -409 428 -585 l113 -90 -6 -150 c-4 -122 -10 -166 -31 -238 -14 -48 -26 -90 -26 -93 0 -3 47 -27 104 -54 214 -101 533 -195 855 -250 96 -17 185 -37 197 -44 42 -28 57 -81 51 -175 -10 -147 -66 -268 -179 -387 -28 -30 -47 -54 -42 -54 5 0 50 7 99 15 156 25 334 96 466 186 145 98 251 275 279 465 20 144 45 107 -272 421 -156 154 -370 363 -475 464 l-192 184 -1 411 0 412 -29 11 c-36 16 -87 68 -100 104 -23 60 -6 152 37 201 26 29 92 56 140 56 68 0 137 -43 169 -105 20 -38 20 -122 0 -161 -18 -36 -76 -89 -106 -99 -20 -6 -21 -14 -21 -129 0 -68 -3 -244 -6 -392 l-7 -269 483 -470 483 -470 -6 -95 c-12 -182 -88 -367 -201 -488 -56 -60 -59 -65 -42 -78 48 -35 694 -349 1005 -489 53 -23 190 -86 305 -139 116 -53 211 -96 213 -96 2 0 3 416 3 923 l0 924 63 2 c122 3 343 63 469 127 26 13 52 24 58 24 8 0 11 -30 9 -90 l-3 -91 -185 -182 -186 -182 3 -411 3 -412 -46 -26 c-54 -32 -75 -69 -75 -132 0 -157 212 -212 282 -73 22 42 23 100 3 138 -17 34 -70 81 -91 81 -12 0 -14 62 -14 408 l0 409 185 177 185 178 0 123 0 124 78 42 c42 24 100 57 127 74 28 17 67 42 88 54 l37 23 0 -286 0 -285 -235 -223 -235 -223 0 -127 0 -127 35 -37 35 -37 -20 -42 c-25 -51 -25 -98 -1 -151 51 -113 219 -128 286 -25 48 73 42 150 -17 216 -37 43 -85 59 -151 51 -49 -5 -53 -4 -77 26 -22 28 -25 44 -28 128 l-4 97 34 28 c18 15 124 115 236 222 l202 195 1 321 0 322 76 53 c41 29 77 51 79 49 2 -2 -5 -29 -15 -60 -34 -98 -62 -248 -70 -367 -32 -519 164 -885 607 -1134 122 -68 224 -110 337 -137 118 -27 123 -25 79 36 -84 115 -119 232 -112 372 3 77 9 101 36 156 40 80 59 94 312 222 102 51 218 117 259 146 284 199 442 533 444 934 1 205 -13 287 -95 573 -41 143 -58 180 -37 82 9 -42 9 -54 -2 -60 -7 -5 -13 -29 -14 -53 -2 -37 1 -44 13 -39 10 3 13 1 8 -6 -4 -7 -14 -12 -22 -12 -8 0 -12 -4 -9 -10 3 -5 -1 -10 -9 -10 -9 0 -30 -9 -48 -20 -36 -22 -58 -26 -58 -9 0 5 4 8 9 5 5 -3 14 1 21 9 16 19 2 19 -43 0 -31 -13 -36 -13 -41 0 -3 8 -15 15 -26 15 -14 0 -19 4 -14 12 4 6 3 8 -4 4 -6 -3 -9 -15 -7 -26 2 -12 0 -18 -5 -15 -5 3 -11 1 -15 -5 -9 -15 -32 -12 -38 4 -4 10 -1 13 7 10 16 -6 25 6 31 37 4 17 2 19 -10 9 -12 -10 -15 -9 -15 4 0 9 -4 16 -8 16 -5 0 -9 6 -9 14 0 8 7 11 18 9 9 -3 20 0 23 6 4 7 1 8 -8 5 -12 -4 -16 0 -16 16 0 11 4 19 9 16 9 -6 9 5 -1 34 -3 8 -9 28 -14 44 -5 16 -15 31 -23 34 -8 3 -11 0 -7 -6 3 -6 3 -13 -1 -15 -5 -3 -9 38 -10 90 -1 53 -5 98 -8 101 -3 3 -5 -183 -5 -414 l0 -419 37 -20 c127 -68 132 -249 10 -319 -58 -33 -98 -40 -149 -24 -87 26 -149 125 -133 216 8 49 65 119 112 138 l33 14 -2 468 c-1 257 -4 393 -5 303 -2 -93 -8 -170 -14 -177 -7 -8 -7 -14 1 -19 15 -9 1 -28 -16 -21 -8 3 -14 1 -14 -4 0 -6 6 -10 14 -10 10 0 14 -12 12 -45 -2 -48 -16 -76 -16 -32 0 17 -5 27 -14 27 -8 0 -17 6 -19 13 -4 7 -6 8 -6 1 -1 -6 6 -17 14 -24 23 -19 16 -98 -7 -83 -7 4 -9 -4 -5 -23 5 -27 4 -28 -9 -9 -8 11 -17 19 -19 18 -3 -2 -11 -3 -17 -2 -7 0 -4 4 7 9 16 7 13 9 -17 9 -23 1 -40 7 -46 17 -6 11 -17 15 -31 11 -11 -3 -24 0 -28 5 -3 6 -2 9 3 6 5 -4 23 0 39 7 l30 14 -45 -1 c-25 -1 -49 -4 -55 -7 -15 -8 -35 -10 -33 -3 5 17 -25 53 -41 50 -10 -2 -26 4 -36 12 -17 14 -18 13 -12 -2 9 -24 -2 -23 -24 4 -23 26 -24 29 -1 22 13 -5 14 -4 3 4 -8 6 -10 15 -5 23 6 12 5 12 -9 0 -15 -12 -17 -10 -17 15 0 36 -23 80 -38 77 -7 -2 -12 1 -12 5 0 4 -12 8 -27 7 -17 0 -27 5 -26 13 2 6 -2 12 -7 12 -9 0 -14 -14 -11 -32 0 -5 -6 -8 -15 -8 -9 0 -12 5 -8 12 5 7 3 8 -5 4 -7 -5 -10 -14 -7 -22 6 -14 -9 -20 -17 -6 -2 4 -2 2 -1 -5 4 -16 -4 -20 -46 -25 -19 -1 -45 -11 -57 -22 -11 -10 -23 -16 -26 -15 -3 2 -14 -5 -26 -15 -14 -13 -21 -15 -21 -6 0 7 -3 10 -6 7 -4 -4 -1 -13 6 -22 11 -13 17 -10 53 20 123 105 307 17 307 -147 0 -73 -31 -125 -97 -163 l-52 -30 -1 -397 0 -396 -185 -178 c-179 -171 -185 -178 -179 -209 7 -37 -16 -89 -45 -105 -11 -5 -38 -10 -61 -10 -91 0 -133 102 -71 172 22 25 37 32 70 34 40 2 51 11 217 170 l176 168 -6 50 c-3 28 -6 200 -6 382 l0 330 -34 17 c-77 36 -118 136 -92 221 17 54 14 66 -14 66 -10 0 -22 5 -26 12 -4 6 -3 8 3 5 6 -4 13 2 16 14 5 17 3 18 -9 8 -17 -14 -15 -2 12 98 27 97 13 78 -30 -42 -95 -265 -158 -382 -289 -536 -65 -75 -234 -225 -298 -263 l-29 -17 0 279 0 278 35 17 c50 24 75 70 75 137 0 95 -54 152 -142 148 -39 -1 -40 -2 -8 -5 68 -7 78 -11 78 -38 0 -20 -3 -23 -19 -15 -10 6 -24 10 -31 10 -7 -1 1 -7 19 -15 17 -7 37 -23 43 -35 11 -20 10 -70 -1 -110 -3 -10 2 -14 14 -12 23 4 22 -5 -3 -18 -16 -8 -20 -8 -18 2 2 7 -4 11 -12 9 -8 -3 -33 -6 -56 -9 -36 -3 -44 0 -67 28 -17 19 -27 44 -27 63 0 32 0 32 -13 8 -12 -24 -33 -26 -31 -3 1 6 -3 12 -8 12 -16 0 -2 -80 19 -108 11 -14 36 -34 56 -45 l37 -19 0 -304 0 -304 -72 -47 c-98 -63 -237 -143 -249 -143 -5 0 -9 67 -9 155 0 130 2 155 15 155 8 0 35 19 60 43 44 42 45 45 45 105 0 51 -4 65 -26 92 -36 42 -74 60 -128 60 -36 0 -52 -6 -79 -30 -46 -40 -61 -79 -55 -141 4 -40 12 -57 38 -84 19 -19 42 -37 52 -41 16 -5 18 -20 18 -180 l0 -174 -72 -36 c-66 -33 -199 -84 -220 -84 -4 0 -8 30 -8 68 l0 67 41 23 c79 46 100 154 42 223 -37 44 -79 62 -129 56 -145 -16 -182 -201 -56 -282 31 -20 31 -22 32 -98 0 -75 -1 -78 -27 -88 -16 -6 -65 -16 -110 -22 -75 -10 -83 -14 -83 -33 0 -21 0 -21 -92 -7 -173 27 -384 111 -593 238 -467 282 -852 603 -1010 841 -128 192 -310 720 -361 1042 -4 23 -11 42 -16 42 -5 0 -89 -78 -186 -172 -98 -95 -280 -272 -405 -392 l-227 -220 0 -631 0 -631 233 -225 c203 -197 237 -226 271 -232 103 -17 129 -149 37 -187 -75 -30 -147 20 -138 97 l4 42 -248 241 -249 242 0 657 0 658 88 84 c48 46 250 240 449 432 l361 349 4 134 c2 88 7 137 15 145 7 7 16 10 19 6 3 -3 17 -82 31 -174 44 -302 120 -613 225 -911 84 -242 158 -365 323 -540 119 -126 115 -127 115 27 l0 130 -41 23 c-24 13 -51 41 -66 66 -21 36 -25 52 -21 101 5 69 32 113 88 141 85 43 189 10 229 -73 41 -84 15 -174 -65 -224 l-44 -28 0 -172 0 -172 125 -100 c259 -208 656 -447 872 -524 82 -30 238 -61 253 -52 7 5 10 133 9 394 l-2 388 -106 7 c-213 13 -313 58 -471 214 -58 57 -126 114 -151 127 -86 44 -85 55 11 97 56 25 134 74 270 168 41 29 108 68 148 87 69 34 74 35 120 23 26 -6 80 -24 120 -40 47 -18 74 -24 79 -17 3 6 1 7 -5 3 -15 -9 -14 -12 -16 152 l-1 134 -49 19 c-27 10 -66 34 -85 53 -20 18 -46 39 -58 45 -53 27 -113 0 -113 -51 l0 -31 -47 7 c-67 9 -131 52 -168 111 -27 44 -30 56 -29 134 0 107 16 140 122 260 151 173 163 215 83 292 -48 45 -58 67 -76 153 -6 28 -8 26 -148 -109 -256 -248 -258 -252 -189 -296 43 -28 82 -98 82 -148 0 -81 -72 -164 -154 -178 -78 -12 -177 56 -192 132 -17 92 24 173 105 208 44 18 46 21 47 61 1 39 7 46 115 149 193 183 416 384 447 402 l29 17 6 247 c4 135 7 287 7 336 l0 90 -136 143 c-90 96 -134 148 -130 159 3 8 7 184 7 391 l1 377 92 85 c50 47 167 158 260 247 l169 163 5 133 c4 114 2 135 -11 140 -8 3 -175 3 -371 0 l-355 -6 -105 -92 c-58 -51 -125 -110 -150 -130 l-46 -37 0 -268 0 -268 45 -22 c67 -33 99 -91 93 -174 -3 -51 -10 -71 -32 -101 -51 -67 -145 -92 -223 -60 -48 20 -71 41 -94 87 -50 98 -1 217 105 258 l26 10 1 292 0 293 165 140 c91 76 174 145 183 152 13 8 123 14 394 19 l377 7 0 97 0 97 -67 6 c-89 9 -717 9 -777 1 -42 -6 -74 -27 -266 -173 -608 -463 -746 -568 -773 -592 l-29 -25 -6 -201 c-5 -200 -5 -201 17 -208 31 -9 89 -62 107 -96 21 -41 18 -122 -6 -170 -29 -56 -99 -99 -162 -99 -51 0 -111 24 -139 56 -46 53 -62 137 -38 201 15 40 67 91 106 104 l33 11 0 226 0 227 193 145 c105 80 273 208 372 285 239 187 407 313 479 361 l59 39 449 0 448 0 0 93 c0 81 -2 92 -17 92 -10 0 -63 5 -118 11 -138 14 -494 13 -645 -1 -143 -13 -331 -43 -407 -65 -36 -11 -84 -40 -160 -99 -245 -191 -569 -473 -904 -787 l-145 -137 -47 -158 c-83 -286 -333 -1296 -415 -1684 -6 -29 -32 -55 -152 -158 -80 -67 -179 -150 -222 -183 -74 -59 -76 -62 -66 -91 17 -50 5 -132 -26 -172 -79 -104 -243 -101 -313 6 -23 34 -28 53 -28 104 0 53 4 69 30 105 57 81 155 108 237 66 42 -21 49 -22 60 -9 7 8 95 84 195 169 101 85 187 163 193 173 6 10 39 144 75 297 130 561 285 1176 382 1513 19 65 54 103 318 350 310 289 583 522 814 698 87 65 102 73 185 92 254 60 648 90 927 71 97 -6 191 -16 209 -21 19 -5 36 -8 38 -6 2 3 1 48 -3 100 l-7 96 -82 25 c-171 52 -399 72 -626 55z m125 -1124 c43 -33 74 -95 75 -149 0 -76 -53 -156 -117 -178 l-34 -11 1 -421 c1 -406 1 -422 -18 -436 -11 -9 -148 -136 -305 -284 l-285 -268 19 -36 c48 -95 6 -207 -96 -254 -105 -49 -223 12 -255 133 -37 134 114 268 245 218 25 -9 33 -4 118 77 51 49 183 173 295 277 l202 189 0 403 0 404 -32 14 c-137 59 -151 254 -23 332 34 21 50 24 106 22 55 -3 73 -9 104 -32z m-775 -286 c80 -41 118 -140 86 -225 -18 -47 -72 -101 -116 -117 -25 -8 -27 -14 -26 -56 0 -26 -1 -166 -2 -312 l-2 -265 -207 -190 c-114 -104 -267 -246 -340 -314 l-133 -124 0 -321 0 -321 29 -27 c101 -95 -27 -242 -130 -150 -43 38 -45 99 -5 141 l26 27 0 345 0 345 340 314 340 314 0 297 0 297 -23 6 c-87 21 -142 148 -106 243 37 99 168 145 269 93z m943 -1471 c15 -17 27 -41 27 -55 0 -28 -36 -94 -51 -94 -5 0 -9 -67 -9 -155 l0 -154 -257 -256 -258 -255 -82 0 -82 0 -17 -36 c-34 -70 -137 -111 -217 -85 -132 44 -171 210 -71 303 92 86 249 51 293 -64 10 -27 13 -28 83 -28 l73 0 233 232 232 231 0 126 0 126 -30 28 c-41 40 -43 102 -2 139 15 14 34 28 42 31 27 9 65 -4 93 -34z m-1342 -431 c41 -23 79 -84 79 -126 0 -54 -66 -142 -106 -142 -12 0 -14 -38 -14 -229 l0 -229 461 -456 462 -456 -5 -369 -6 -369 87 -77 c47 -43 92 -80 99 -82 25 -10 42 17 36 58 -21 127 133 180 182 63 27 -65 -19 -134 -90 -134 -21 0 -43 -17 -60 -47 -7 -12 253 -253 274 -253 15 0 91 39 113 58 30 26 22 66 -20 93 -56 36 -83 83 -83 142 0 88 55 156 136 165 60 6 88 -3 133 -43 92 -83 66 -227 -48 -275 -30 -12 -31 -15 -31 -70 l0 -58 -101 -57 c-55 -31 -105 -54 -112 -51 -7 2 -142 124 -301 270 l-288 264 0 374 0 373 -309 304 -309 305 0 -170 0 -169 39 -22 c50 -29 86 -98 77 -148 -8 -40 -47 -90 -87 -110 -67 -35 -164 -3 -199 65 -36 71 -18 141 49 187 l40 28 1 212 0 212 -110 102 -110 103 0 246 0 245 -38 20 c-49 26 -74 76 -69 136 10 113 127 174 228 117z m-708 -682 c44 -18 94 -77 107 -127 19 -68 -4 -134 -64 -187 -40 -35 -88 -47 -151 -39 l-44 6 -233 -227 c-128 -125 -268 -261 -310 -301 l-78 -74 0 -300 0 -299 30 -28 c65 -61 20 -175 -70 -175 -35 0 -47 6 -71 33 -39 44 -39 90 1 135 l30 35 0 319 0 319 315 303 c173 167 315 305 315 308 0 2 -9 21 -20 43 -24 46 -27 129 -6 168 15 29 59 73 91 90 28 16 119 15 158 -2z m-73 -1261 c59 -31 69 -103 20 -158 l-30 -35 0 -329 0 -329 343 -335 c309 -303 346 -336 382 -342 47 -7 95 -54 95 -92 0 -88 -102 -137 -167 -81 -24 21 -28 32 -28 78 l-1 53 -104 100 c-58 55 -216 208 -352 339 l-248 239 0 353 0 353 -25 25 c-19 19 -25 35 -25 68 1 49 14 71 56 93 36 19 48 19 84 0z m5575 -214 c-3 -2 0 -13 6 -24 8 -14 8 -18 0 -13 -6 4 -11 3 -11 -3 0 -5 5 -13 11 -16 6 -4 8 -13 5 -21 -3 -8 -2 -14 3 -14 4 0 8 -7 8 -15 0 -8 -4 -12 -8 -9 -4 2 -10 0 -14 -6 -3 -5 -1 -10 4 -10 6 0 11 -7 11 -16 0 -13 -3 -14 -14 -5 -9 8 -21 8 -39 2 -17 -7 -28 -7 -32 -1 -4 6 0 10 7 10 9 0 9 3 -2 10 -13 8 -12 10 5 11 11 1 5 4 -14 8 -40 7 -54 41 -16 36 16 -1 22 2 18 11 -3 8 0 14 7 14 10 0 10 3 0 15 -10 12 -9 15 6 15 14 0 16 2 6 9 -8 4 -27 7 -43 5 -16 -2 -29 1 -29 7 0 6 5 7 10 4 6 -3 10 -1 10 4 0 6 -13 11 -29 11 -17 0 -32 3 -34 8 -3 4 10 7 29 7 24 0 36 -5 40 -17 6 -19 24 -25 24 -8 0 5 8 6 18 3 14 -6 15 -4 4 9 -11 14 -10 17 5 20 16 4 57 -31 48 -41z m-892 -26 c8 -8 17 -12 20 -9 3 3 7 1 10 -3 3 -5 -3 -10 -14 -10 -10 -1 -19 2 -19 8 0 5 -8 9 -17 9 -13 0 -10 -6 11 -19 17 -11 34 -17 40 -14 5 4 7 -1 3 -11 -4 -10 -1 -19 8 -22 8 -4 13 -10 10 -14 -9 -14 -65 -39 -69 -31 -4 7 -51 7 -51 1 0 -2 -13 -4 -72 -9 -7 -1 -13 -8 -13 -16 0 -26 -15 -16 -16 11 -1 17 5 28 20 35 11 5 41 31 66 58 49 53 61 59 83 36z m322 -112 c9 4 15 -10 20 -46 5 -29 7 -56 5 -62 -1 -5 -3 -27 -3 -47 0 -31 -3 -36 -14 -27 -11 9 -12 8 -7 -5 3 -9 1 -16 -5 -16 -6 0 -11 5 -11 10 0 6 -7 10 -16 10 -8 0 -12 5 -9 10 4 6 11 8 16 5 5 -4 9 -2 9 3 0 15 -41 22 -61 11 -15 -7 -17 -6 -13 5 3 9 11 14 17 13 14 -3 18 41 4 50 -6 3 -7 1 -3 -5 4 -7 5 -12 2 -12 -2 0 -12 -3 -22 -7 -12 -4 -15 -3 -10 5 4 7 3 12 -3 12 -6 0 -8 7 -4 16 3 9 0 20 -8 25 -11 7 -11 9 -1 9 8 0 10 5 6 13 -4 6 -4 9 1 5 4 -4 17 -2 29 4 11 7 24 11 29 10 4 -1 7 3 7 9 0 5 5 7 10 4 6 -3 11 2 11 12 1 17 2 17 6 0 3 -10 11 -16 18 -14z m-4307 2 c49 -21 81 -52 103 -100 32 -69 18 -149 -36 -205 l-24 -25 254 -247 c222 -218 257 -248 285 -248 42 0 67 -15 85 -50 22 -43 18 -76 -14 -112 -24 -27 -36 -33 -71 -33 -35 0 -47 6 -72 34 -26 29 -29 40 -25 72 l5 39 -265 252 c-188 180 -273 254 -292 256 -94 11 -160 63 -181 143 -40 146 110 281 248 224z m2541 -111 c65 -54 28 -154 -57 -154 -90 0 -122 122 -43 165 39 21 66 18 100 -11z m-379 -319 c72 -37 68 -130 -7 -161 -31 -14 -38 -13 -71 3 -65 32 -70 116 -9 153 39 24 49 24 87 5z m-1227 -172 l27 -36 0 -461 0 -461 39 -16 c60 -26 96 -87 96 -164 0 -51 -5 -69 -28 -104 -48 -72 -143 -100 -225 -66 -75 32 -112 86 -112 165 0 87 36 143 113 175 l38 15 -3 516 c-3 460 -1 513 12 495 8 -12 27 -38 43 -58z m1688 -1320 c69 -41 75 -137 10 -180 -50 -34 -96 -30 -137 11 -27 27 -34 42 -34 74 0 86 88 138 161 95z m-446 -335 c76 -90 -43 -202 -126 -119 -45 46 -33 122 24 146 40 17 73 8 102 -27z"/>
<path d="M9496 14374 c-30 -31 -36 -95 -11 -131 47 -67 165 -39 181 42 7 37 -15 89 -45 105 -38 20 -96 12 -125 -16z"/>
<path d="M8784 12672 c-45 -36 -53 -74 -29 -127 28 -59 102 -73 154 -29 74 62 34 174 -64 174 -23 0 -49 -8 -61 -18z"/>
<path d="M8739 14081 c-39 -40 -41 -109 -4 -146 37 -37 106 -35 146 4 64 65 20 171 -71 171 -33 0 -48 -6 -71 -29z"/>
<path d="M8893 11862 c-75 -58 -31 -172 65 -172 58 0 104 68 83 122 -23 60 -102 86 -148 50z"/>
<path d="M8372 12187 c-30 -32 -28 -71 4 -96 35 -28 69 -26 99 4 30 30 31 54 4 89 -27 34 -77 36 -107 3z"/>
<path d="M8592 10780 c-62 -58 11 -155 87 -116 48 25 55 73 16 111 -30 31 -73 32 -103 5z"/>
<path d="M10024 9792 c-40 -26 -45 -102 -9 -137 41 -42 105 -31 133 22 18 33 14 59 -14 92 -20 24 -34 31 -62 31 -21 0 -42 -4 -48 -8z"/>
<path d="M7652 11495 c-38 -32 -48 -72 -28 -118 17 -42 41 -57 91 -57 47 0 71 13 90 50 24 46 19 78 -19 116 -43 43 -90 46 -134 9z"/>
<path d="M8301 9886 c-48 -27 -63 -84 -36 -136 31 -59 107 -69 156 -21 48 49 38 125 -21 156 -35 18 -67 19 -99 1z"/>
<path d="M9280 8318 c-85 -58 -49 -178 53 -178 73 0 121 62 100 127 -11 32 -66 73 -98 73 -12 0 -37 -10 -55 -22z"/>
<path d="M10039 14045 l-216 -213 -6 -358 -6 -358 94 -95 95 -96 0 235 0 236 -30 26 c-59 51 -32 154 44 174 87 21 151 -93 92 -163 l-24 -29 -3 -649 c-3 -496 -1 -649 9 -653 6 -2 36 -24 67 -49 111 -92 97 -202 -44 -336 -44 -42 -61 -66 -61 -85 0 -46 -39 -108 -132 -208 -100 -110 -127 -157 -128 -224 0 -56 35 -129 71 -149 24 -13 29 -12 65 16 71 57 147 52 225 -13 59 -49 100 -69 109 -54 9 15 10 2189 1 2807 l-6 452 -216 -214z"/>
<path d="M9146 13745 c-42 -22 -55 -44 -56 -93 0 -57 35 -92 92 -92 50 0 74 13 93 50 22 43 18 76 -12 110 -34 37 -78 46 -117 25z"/>
<path d="M8258 13655 c-35 -20 -48 -44 -48 -92 1 -60 38 -93 105 -93 50 0 95 44 95 94 0 74 -88 127 -152 91z"/>
<path d="M9959 11989 c-12 -12 -20 -35 -20 -61 l-2 -43 -7 40 c-4 22 -8 31 -10 20 -4 -34 1 -59 16 -75 7 -9 20 -33 29 -53 18 -44 37 -54 71 -39 21 10 24 9 24 -8 0 -31 16 -24 30 13 6 17 21 49 32 69 31 60 22 97 -31 126 -56 31 -108 35 -132 11z"/>
<path d="M6744 11900 c-57 -23 -72 -107 -28 -159 48 -58 135 -47 170 20 44 87 -48 177 -142 139z"/>
<path d="M9370 11428 c-53 -28 -65 -99 -24 -147 36 -43 93 -44 135 -2 38 38 39 80 2 121 -32 35 -77 46 -113 28z"/>
<path d="M11193 11073 c17 -18 24 -33 18 -37 -5 -4 -14 2 -20 11 -6 10 -11 13 -11 6 0 -6 5 -15 10 -18 6 -3 10 -11 10 -18 0 -6 -16 4 -35 23 -19 19 -35 31 -35 27 0 -3 109 -110 243 -237 l242 -231 5 -122 c3 -67 1 -124 -4 -126 -5 -2 -23 -16 -40 -32 -30 -27 -30 -28 -8 -29 13 0 21 -4 17 -9 -7 -12 26 -7 54 8 11 6 27 11 36 11 25 0 85 -64 85 -90 0 -30 -41 -100 -54 -94 -6 3 -3 -1 7 -9 16 -14 16 -15 -5 -30 -34 -24 0 -21 39 3 46 28 66 72 61 136 -6 67 -29 101 -84 125 l-44 20 0 132 0 131 43 46 c24 25 28 32 10 16 -18 -17 -33 -25 -33 -18 0 6 -7 9 -15 6 -8 -4 -12 -11 -8 -18 3 -6 1 -6 -8 2 -7 6 -20 12 -28 12 -9 0 -40 24 -71 53 -30 28 -42 37 -25 20 16 -18 27 -33 24 -34 -2 0 -14 -2 -26 -5 -16 -3 -38 11 -80 51 -32 30 -58 60 -58 67 0 7 -11 18 -25 25 -14 7 -21 13 -16 13 5 0 3 7 -4 15 -31 38 33 4 83 -43 20 -20 37 -33 37 -30 0 3 -71 72 -157 154 -87 81 -145 134 -130 117z"/>
<path d="M12055 10808 c-16 -68 -31 -129 -33 -136 -2 -7 8 -1 22 13 16 16 31 23 43 19 13 -5 11 0 -7 17 -14 13 -20 20 -13 15 8 -5 18 -4 26 2 14 12 31 5 40 -18 4 -8 6 4 5 28 -2 39 2 47 57 104 33 35 46 50 28 34 -17 -15 -36 -25 -41 -22 -6 4 -13 2 -17 -3 -3 -6 -15 -1 -27 11 -15 15 -22 17 -28 8 -5 -8 -9 -8 -13 4 -3 8 -1 17 6 20 9 3 8 5 -1 5 -7 1 -10 6 -7 11 3 6 2 10 -2 10 -5 0 -22 -55 -38 -122z"/>
<path d="M10008 10586 c-29 -11 -304 -190 -333 -219 -16 -15 108 1 214 29 113 29 174 30 276 4 43 -11 83 -20 89 -20 7 0 10 24 8 69 l-4 69 -71 30 c-108 45 -138 51 -179 38z"/>
<path d="M10624 10592 c4 -7 1 -15 -8 -18 -9 -3 -16 -13 -16 -21 0 -13 -3 -13 -15 -3 -8 7 -15 10 -15 7 0 -3 59 -47 130 -97 72 -51 133 -97 136 -102 9 -14 -80 -3 -198 23 -114 25 -120 24 -75 -8 44 -31 48 -46 10 -37 -31 7 -31 7 -53 4 -25 -3 180 -48 253 -56 37 -4 67 -11 67 -15 0 -17 -101 -108 -157 -142 -78 -47 -176 -76 -306 -89 l-107 -12 2 -33 2 -33 61 0 c76 1 193 22 270 49 85 30 157 82 255 181 50 51 102 94 128 105 23 10 42 21 42 24 0 4 -28 21 -63 38 -34 17 -112 68 -172 114 -171 129 -179 135 -171 121z"/>
<path d="M7947 10579 c-24 -14 -47 -62 -47 -98 0 -38 41 -88 80 -96 38 -8 94 18 109 51 21 46 14 83 -23 120 -36 36 -82 45 -119 23z"/>
<path d="M8905 10425 c-19 -18 -25 -35 -25 -65 0 -55 34 -90 87 -90 86 1 124 91 64 151 -38 38 -91 40 -126 4z"/>
<path d="M9900 10314 c-47 -14 -112 -28 -145 -32 l-60 -8 59 -57 c124 -124 220 -166 392 -174 l111 -6 6 46 c4 25 4 81 0 125 l-6 79 -106 26 c-127 32 -142 32 -251 1z"/>
<path d="M12750 9652 c-39 -40 -41 -88 -4 -131 22 -26 33 -31 71 -31 36 0 50 6 75 30 27 27 30 36 25 72 -7 54 -34 79 -90 85 -41 5 -49 2 -77 -25z"/>
<path d="M11195 8404 c-35 -38 -34 -95 1 -123 15 -12 34 -21 43 -22 9 0 51 -49 93 -109 l76 -110 -29 -21 c-41 -29 -62 -75 -62 -135 0 -68 29 -116 89 -144 126 -62 260 37 240 175 -11 73 -62 121 -148 139 -18 4 -39 23 -59 54 -18 26 -53 73 -77 105 -40 52 -43 61 -33 83 30 68 -4 134 -70 134 -30 0 -46 -6 -64 -26z m341 -425 c29 -14 54 -61 54 -99 0 -49 -55 -100 -108 -100 -59 0 -102 43 -102 102 0 90 74 136 156 97z"/>
<path d="M5252 6150 c-259 -40 -456 -215 -518 -460 -22 -86 -22 -245 -1 -329 100 -377 556 -562 932 -376 50 24 111 63 137 85 62 54 141 172 167 253 43 128 45 290 5 412 -65 197 -227 345 -438 399 -73 19 -215 27 -284 16z m218 -211 c240 -54 368 -350 257 -593 -74 -161 -258 -257 -434 -226 -84 14 -191 69 -239 122 -145 161 -140 443 11 593 101 102 248 139 405 104z"/>
<path d="M15480 6134 c-178 -38 -321 -145 -403 -302 -150 -285 -71 -641 180 -808 197 -131 493 -143 689 -28 54 32 134 102 134 118 0 6 -20 31 -45 56 l-44 43 -42 -38 c-83 -75 -238 -122 -362 -110 -258 24 -427 209 -427 466 0 277 192 472 465 472 128 0 237 -40 325 -119 l37 -33 49 50 49 51 -50 44 c-64 58 -191 120 -280 139 -86 18 -189 18 -275 -1z"/>
<path d="M2803 6128 c2 -7 48 -150 102 -318 53 -168 137 -429 186 -580 49 -152 89 -281 89 -288 0 -9 28 -12 99 -12 54 0 112 -3 129 -6 l31 -6 142 435 c79 240 146 434 150 431 6 -3 145 -422 255 -767 l28 -88 130 3 129 3 38 115 c21 63 106 329 190 590 83 261 154 481 156 488 4 10 -20 12 -113 10 l-118 -3 -59 -180 c-32 -99 -94 -299 -138 -445 -44 -145 -82 -266 -84 -268 -6 -6 10 -51 -155 453 -78 237 -145 434 -149 438 -4 4 -56 6 -115 5 l-108 -3 -35 -115 c-58 -194 -244 -765 -251 -772 -4 -4 -67 188 -141 425 -74 238 -138 440 -143 450 -8 15 -24 17 -129 17 -93 0 -120 -3 -116 -12z"/>
<path d="M6220 5535 l0 -605 110 0 110 0 2 410 3 410 96 -177 c53 -98 138 -256 189 -350 l92 -173 68 0 68 0 84 158 c47 86 132 245 189 352 l104 195 3 -412 2 -413 110 0 110 0 0 605 0 605 -124 0 -124 0 -107 -202 c-59 -112 -143 -268 -185 -348 -43 -80 -89 -167 -102 -194 l-25 -49 -65 119 c-36 65 -121 223 -189 349 -68 127 -135 251 -149 277 l-25 48 -122 0 -123 0 0 -605z"/>
<path d="M7860 5535 l0 -605 460 0 460 0 0 98 0 97 -257 -3 c-142 -2 -300 0 -350 3 l-93 7 0 159 0 159 305 0 305 0 0 90 0 90 -302 2 -303 3 -3 152 -3 153 343 2 343 3 3 98 3 97 -456 0 -455 0 0 -605z"/>
<path d="M8990 5535 l0 -605 110 0 110 0 1 378 c1 207 4 387 7 399 8 23 57 -34 470 -549 l182 -228 95 0 95 0 0 605 0 606 -112 -3 -112 -3 2 -370 c1 -203 -1 -384 -5 -402 -8 -32 -13 -26 -331 372 l-322 405 -95 0 -95 0 0 -605z"/>
<path d="M11293 6132 l-53 -3 0 -600 0 -599 65 0 65 0 0 248 c0 208 10 693 14 699 4 4 725 -915 733 -934 3 -9 26 -13 64 -13 l59 0 0 600 0 600 -65 0 -65 0 0 -481 0 -482 -52 69 c-158 211 -674 864 -702 889 -6 6 -35 9 -63 7z"/>
<path d="M12802 6070 l3 -71 205 -2 205 -2 2 -530 1 -530 76 -3 76 -3 0 537 0 536 205 -4 205 -3 0 71 0 72 -490 1 -491 2 3 -71z"/>
<path d="M13960 5535 l0 -605 450 0 450 0 0 70 0 70 -370 0 -370 0 0 200 0 200 320 0 321 0 -3 68 -3 67 -75 -1 c-41 -1 -184 1 -317 4 l-243 5 0 188 0 189 360 0 360 0 0 75 0 75 -440 0 -440 0 0 -605z"/>
<path d="M16280 5536 l0 -606 80 0 80 0 0 270 0 270 360 0 360 0 0 -270 0 -270 80 0 80 0 0 600 0 600 -60 1 c-33 1 -68 2 -77 3 -17 1 -18 -19 -21 -266 l-2 -268 -360 0 -360 0 0 265 0 265 -34 0 c-18 0 -54 3 -80 6 l-46 7 0 -607z"/>
<path d="M10760 5530 l0 -600 65 0 65 0 0 600 0 600 -65 0 -65 0 0 -600z"/>
</g>
</svg>
